{
  "accessors": [
    {
      "bufferView": 2,
      "componentType": 5126,
      "count": 16,
      "max": [
        2.5993759632110596,
        -4.011143207550049,
        6.355034828186035
      ],
      "min": [
        -2.8715600967407227,
        -4.011143207550049,
        5.170289993286133
      ],
      "type": "VEC3"
    },
    {
      "bufferView": 2,
      "byteOffset": 192,
      "componentType": 5126,
      "count": 16,
      "max": [
        0.0,
        -1.0,
        0.0
      ],
      "min": [
        0.0,
        -1.0,
        0.0
      ],
      "type": "VEC3"
    },
    {
      "bufferView": 3,
      "componentType": 5126,
      "count": 16,
      "max": [
        0.00015145092038437724,
        0.0,
        1.0,
        1.0
      ],
      "min": [
        -0.00018554356938693672,
        0.0,
        1.0,
        1.0
      ],
      "type": "VEC4"
    },
    {
      "bufferView": 1,
      "componentType": 5126,
      "count": 16,
      "max": [
        0.5329210162162781,
        0.7432820200920105
      ],
      "min": [
        0.4825049936771393,
        0.510470986366272
      ],
      "type": "VEC2"
    },
    {
      "bufferView": 0,
      "componentType": 5125,
      "count": 42,
      "type": "SCALAR"
    },
    {
      "bufferView": 2,
      "byteOffset": 384,
      "componentType": 5126,
      "count": 220,
      "max": [
        5.794120788574219,
        -2.284868001937866,
        7.089625835418701
      ],
      "min": [
        -6.06627893447876,
        -4.196127891540527,
        3.053750991821289
      ],
      "type": "VEC3"
    },
    {
      "bufferView": 2,
      "byteOffset": 3024,
      "componentType": 5126,
      "count": 220,
      "max": [
        1.0,
        -0.0,
        1.0
      ],
      "min": [
        -1.0,
        -1.0,
        -1.0
      ],
      "type": "VEC3"
    },
    {
      "bufferView": 3,
      "byteOffset": 256,
      "componentType": 5126,
      "count": 220,
      "max": [
        0.0001824409991968423,
        1.0,
        1.0,
        1.0
      ],
      "min": [
        -0.0001473399461247027,
        -1.0,
        0.0,
        1.0
      ],
      "type": "VEC4"
    },
    {
      "bufferView": 1,
      "byteOffset": 128,
      "componentType": 5126,
      "count": 220,
      "max": [
        0.8818910121917725,
        0.8688769936561584
      ],
      "min": [
        0.0018810000037774444,
        0.0019920000340789557
      ],
      "type": "VEC2"
    },
    {
      "bufferView": 0,
      "byteOffset": 168,
      "componentType": 5125,
      "count": 588,
      "type": "SCALAR"
    },
    {
      "bufferView": 2,
      "byteOffset": 5664,
      "componentType": 5126,
      "count": 192,
      "max": [
        13.522994995117188,
        -3.347412109375,
        14.358348846435547
      ],
      "min": [
        -13.669498443603516,
        -4.430819034576416,
        6.906752109527588
      ],
      "type": "VEC3"
    },
    {
      "bufferView": 2,
      "byteOffset": 7968,
      "componentType": 5126,
      "count": 192,
      "max": [
        0.5366211533546448,
        -0.8438102006912231,
        0.5366401672363281
      ],
      "min": [
        -0.5366188883781433,
        -0.9974499940872192,
        -0.5366359353065491
      ],
      "type": "VEC3"
    },
    {
      "bufferView": 3,
      "byteOffset": 3776,
      "componentType": 5126,
      "count": 192,
      "max": [
        0.9999997615814209,
        0.5366211533546448,
        0.017803292721509933,
        1.0
      ],
      "min": [
        0.8438233137130737,
        -0.5366188883781433,
        -0.019113844260573387,
        1.0
      ],
      "type": "VEC4"
    },
    {
      "bufferView": 1,
      "byteOffset": 1888,
      "componentType": 5126,
      "count": 192,
      "max": [
        0.36958301067352295,
        0.9253990054130554
      ],
      "min": [
        0.0019920000340789557,
        0.5454829931259155
      ],
      "type": "VEC2"
    },
    {
      "bufferView": 0,
      "byteOffset": 2520,
      "componentType": 5125,
      "count": 936,
      "type": "SCALAR"
    },
    {
      "bufferView": 2,
      "byteOffset": 10272,
      "componentType": 5126,
      "count": 1144,
      "max": [
        4.9505720138549805,
        -4.038327217102051,
        5.7713470458984375
      ],
      "min": [
        -5.102784156799316,
        -4.674559116363525,
        4.408636093139648
      ],
      "type": "VEC3"
    },
    {
      "bufferView": 2,
      "byteOffset": 24000,
      "componentType": 5126,
      "count": 1144,
      "max": [
        1.0,
        1.0,
        1.0
      ],
      "min": [
        -1.0,
        -0.9999836683273315,
        -1.0
      ],
      "type": "VEC3"
    },
    {
      "bufferView": 3,
      "byteOffset": 6848,
      "componentType": 5126,
      "count": 1144,
      "max": [
        1.0,
        1.0,
        0.9999542236328125,
        1.0
      ],
      "min": [
        -0.999954104423523,
        -1.0,
        -0.999954104423523,
        1.0
      ],
      "type": "VEC4"
    },
    {
      "bufferView": 1,
      "byteOffset": 3424,
      "componentType": 5126,
      "count": 1144,
      "max": [
        0.9980080127716064,
        0.9980080127716064
      ],
      "min": [
        0.0019180000526830554,
        0.0018189999973401427
      ],
      "type": "VEC2"
    },
    {
      "bufferView": 0,
      "byteOffset": 6264,
      "componentType": 5125,
      "count": 3948,
      "type": "SCALAR"
    },
    {
      "bufferView": 2,
      "byteOffset": 37728,
      "componentType": 5126,
      "count": 1376,
      "max": [
        17.20612335205078,
        5.3194990158081055,
        16.868135452270508
      ],
      "min": [
        -17.370271682739258,
        -4.745199203491211,
        3.053750991821289
      ],
      "type": "VEC3"
    },
    {
      "bufferView": 2,
      "byteOffset": 54240,
      "componentType": 5126,
      "count": 1376,
      "max": [
        1.0,
        1.0,
        1.0
      ],
      "min": [
        -1.0,
        -1.0,
        -1.0
      ],
      "type": "VEC3"
    },
    {
      "bufferView": 3,
      "byteOffset": 25152,
      "componentType": 5126,
      "count": 1376,
      "max": [
        1.0,
        1.0,
        1.0,
        1.0
      ],
      "min": [
        -0.8660473227500916,
        -1.0,
        -1.0,
        1.0
      ],
      "type": "VEC4"
    },
    {
      "bufferView": 1,
      "byteOffset": 12576,
      "componentType": 5126,
      "count": 1376,
      "max": [
        0.9980080127716064,
        0.9980080127716064
      ],
      "min": [
        0.0018810000037774444,
        0.0018469999777153134
      ],
      "type": "VEC2"
    },
    {
      "bufferView": 0,
      "byteOffset": 22056,
      "componentType": 5125,
      "count": 3630,
      "type": "SCALAR"
    },
    {
      "bufferView": 2,
      "byteOffset": 70752,
      "componentType": 5126,
      "count": 356,
      "max": [
        15.986187934875488,
        -4.175652980804443,
        10.988762855529785
      ],
      "min": [
        -16.1326904296875,
        -4.561306953430176,
        4.443553924560547
      ],
      "type": "VEC3"
    },
    {
      "bufferView": 2,
      "byteOffset": 75024,
      "componentType": 5126,
      "count": 356,
      "max": [
        1.0,
        0.8818932771682739,
        1.0
      ],
      "min": [
        -1.0,
        -0.8818845748901367,
        -1.0
      ],
      "type": "VEC3"
    },
    {
      "bufferView": 3,
      "byteOffset": 47168,
      "componentType": 5126,
      "count": 356,
      "max": [
        1.0,
        1.0,
        1.0,
        1.0
      ],
      "min": [
        -1.0,
        -1.0,
        -1.0,
        -1.0
      ],
      "type": "VEC4"
    },
    {
      "bufferView": 1,
      "byteOffset": 23584,
      "componentType": 5126,
      "count": 356,
      "max": [
        0.65625,
        1.0
      ],
      "min": [
        0.34375,
        0.6875
      ],
      "type": "VEC2"
    },
    {
      "bufferView": 0,
      "byteOffset": 36576,
      "componentType": 5125,
      "count": 1344,
      "type": "SCALAR"
    },
    {
      "bufferView": 2,
      "byteOffset": 79296,
      "componentType": 5126,
      "count": 144,
      "max": [
        15.978151321411133,
        -3.347412109375,
        14.482871055603027
      ],
      "min": [
        -16.12464714050293,
        -4.414700031280518,
        4.4515910148620605
      ],
      "type": "VEC3"
    },
    {
      "bufferView": 2,
      "byteOffset": 81024,
      "componentType": 5126,
      "count": 144,
      "max": [
        0.656005322933197,
        -0.7547388672828674,
        0.6560009717941284
      ],
      "min": [
        -0.6560020446777344,
        -0.9428463578224182,
        -0.655949056148529
      ],
      "type": "VEC3"
    },
    {
      "bufferView": 3,
      "byteOffset": 52864,
      "componentType": 5126,
      "count": 144,
      "max": [
        0.9999696016311646,
        0.6560053825378418,
        0.8418607711791992,
        1.0
      ],
      "min": [
        -0.034571439027786255,
        -0.6560020446777344,
        -0.06554973125457764,
        1.0
      ],
      "type": "VEC4"
    },
    {
      "bufferView": 1,
      "byteOffset": 26432,
      "componentType": 5126,
      "count": 144,
      "max": [
        0.5044509768486023,
        0.8962500095367432
      ],
      "min": [
        0.03883500024676323,
        0.4106149971485138
      ],
      "type": "VEC2"
    },
    {
      "bufferView": 0,
      "byteOffset": 41952,
      "componentType": 5125,
      "count": 384,
      "type": "SCALAR"
    }
  ],
  "asset": {
    "extras": {
      "author": "Stgo Design (https://sketchfab.com/stgodesign)",
      "license": "CC-BY-4.0 (http://creativecommons.org/licenses/by/4.0/)",
      "source": "https://sketchfab.com/3d-models/equipo-de-sonido-stereo-e5b8458fb1234da9ad6ab1edca884c7a",
      "title": "Equipo de sonido / Stereo"
    },
    "generator": "Sketchfab-15.14.0",
    "version": "2.0"
  },
  "bufferViews": [
    {
      "buffer": 0,
      "byteLength": 43488,
      "name": "floatBufferViews",
      "target": 34963
    },
    {
      "buffer": 0,
      "byteLength": 27584,
      "byteOffset": 43488,
      "byteStride": 8,
      "name": "floatBufferViews",
      "target": 34962
    },
    {
      "buffer": 0,
      "byteLength": 82752,
      "byteOffset": 71072,
      "byteStride": 12,
      "name": "floatBufferViews",
      "target": 34962
    },
    {
      "buffer": 0,
      "byteLength": 55168,
      "byteOffset": 153824,
      "byteStride": 16,
      "name": "floatBufferViews",
      "target": 34962
    }
  ],
  "buffers": [
    {
      "byteLength": 208992,
      "uri": "scene.bin"
    }
  ],
  "extensionsUsed": [
    "KHR_materials_specular"
  ],
  "images": [
    {
      "uri": "textures/blinn1SG_baseColor.png"
    },
    {
      "uri": "textures/blinn1SG_metallicRoughness.png"
    },
    {
      "uri": "textures/blinn1SG_normal.png"
    },
    {
      "uri": "textures/blinn1SG_specularf0.png"
    },
    {
      "uri": "textures/blinn2SG_baseColor.png"
    },
    {
      "uri": "textures/blinn2SG_metallicRoughness.png"
    },
    {
      "uri": "textures/blinn2SG_normal.png"
    },
    {
      "uri": "textures/blinn2SG_specularf0.png"
    },
    {
      "uri": "textures/blinn3SG_baseColor.png"
    },
    {
      "uri": "textures/blinn3SG_metallicRoughness.png"
    },
    {
      "uri": "textures/blinn3SG_normal.png"
    },
    {
      "uri": "textures/blinn3SG_specularf0.png"
    },
    {
      "uri": "textures/blinn4SG_baseColor.png"
    },
    {
      "uri": "textures/blinn4SG_metallicRoughness.png"
    },
    {
      "uri": "textures/blinn4SG_normal.png"
    },
    {
      "uri": "textures/blinn4SG_specularf0.png"
    },
    {
      "uri": "textures/lambert2SG_baseColor.png"
    },
    {
      "uri": "textures/lambert2SG_metallicRoughness.png"
    },
    {
      "uri": "textures/lambert2SG_normal.png"
    },
    {
      "uri": "textures/lambert2SG_specularf0.png"
    },
    {
      "uri": "textures/lambert3SG_baseColor.png"
    },
    {
      "uri": "textures/lambert3SG_metallicRoughness.png"
    },
    {
      "uri": "textures/lambert3SG_normal.png"
    },
    {
      "uri": "textures/lambert3SG_specularf0.png"
    },
    {
      "uri": "textures/lambert4SG_baseColor.png"
    },
    {
      "uri": "textures/lambert4SG_metallicRoughness.png"
    },
    {
      "uri": "textures/lambert4SG_normal.png"
    },
    {
      "uri": "textures/lambert4SG_specularf0.png"
    }
  ],
  "materials": [
    {
      "doubleSided": true,
      "extensions": {
        "KHR_materials_specular": {
          "specularColorFactor": [
            1.0,
            1.0,
            1.0
          ],
          "specularFactor": 1.0,
          "specularTexture": {
            "index": 3
          }
        }
      },
      "name": "blinn1SG",
      "normalTexture": {
        "index": 2
      },
      "pbrMetallicRoughness": {
        "baseColorTexture": {
          "index": 0
        },
        "metallicRoughnessTexture": {
          "index": 1
        }
      }
    },
    {
      "doubleSided": true,
      "extensions": {
        "KHR_materials_specular": {
          "specularColorFactor": [
            1.0,
            1.0,
            1.0
          ],
          "specularFactor": 1.0,
          "specularTexture": {
            "index": 7
          }
        }
      },
      "name": "blinn2SG",
      "normalTexture": {
        "index": 6
      },
      "pbrMetallicRoughness": {
        "baseColorTexture": {
          "index": 4
        },
        "metallicRoughnessTexture": {
          "index": 5
        }
      }
    },
    {
      "doubleSided": true,
      "extensions": {
        "KHR_materials_specular": {
          "specularColorFactor": [
            1.0,
            1.0,
            1.0
          ],
          "specularFactor": 1.0,
          "specularTexture": {
            "index": 11
          }
        }
      },
      "name": "blinn3SG",
      "normalTexture": {
        "index": 10
      },
      "pbrMetallicRoughness": {
        "baseColorTexture": {
          "index": 8
        },
        "metallicFactor": 0.4921919762041179,
        "metallicRoughnessTexture": {
          "index": 9
        }
      }
    },
    {
      "doubleSided": true,
      "extensions": {
        "KHR_materials_specular": {
          "specularColorFactor": [
            1.0,
            1.0,
            1.0
          ],
          "specularFactor": 1.0,
          "specularTexture": {
            "index": 15
          }
        }
      },
      "name": "blinn4SG",
      "normalTexture": {
        "index": 14
      },
      "pbrMetallicRoughness": {
        "baseColorTexture": {
          "index": 12
        },
        "metallicRoughnessTexture": {
          "index": 13
        }
      }
    },
    {
      "doubleSided": true,
      "extensions": {
        "KHR_materials_specular": {
          "specularColorFactor": [
            1.0,
            1.0,
            1.0
          ],
          "specularFactor": 1.0,
          "specularTexture": {
            "index": 19
          }
        }
      },
      "name": "lambert2SG",
      "normalTexture": {
        "index": 18
      },
      "pbrMetallicRoughness": {
        "baseColorTexture": {
          "index": 16
        },
        "metallicRoughnessTexture": {
          "index": 17
        }
      }
    },
    {
      "doubleSided": true,
      "extensions": {
        "KHR_materials_specular": {
          "specularColorFactor": [
            1.0,
            1.0,
            1.0
          ],
          "specularFactor": 1.0,
          "specularTexture": {
            "index": 23
          }
        }
      },
      "name": "lambert3SG",
      "normalTexture": {
        "index": 22
      },
      "pbrMetallicRoughness": {
        "baseColorTexture": {
          "index": 20
        },
        "metallicRoughnessTexture": {
          "index": 21
        }
      }
    },
    {
      "doubleSided": true,
      "extensions": {
        "KHR_materials_specular": {
          "specularColorFactor": [
            1.0,
            1.0,
            1.0
          ],
          "specularFactor": 1.0,
          "specularTexture": {
            "index": 27
          }
        }
      },
      "name": "lambert4SG",
      "normalTexture": {
        "index": 26
      },
      "pbrMetallicRoughness": {
        "baseColorTexture": {
          "index": 24
        },
        "metallicRoughnessTexture": {
          "index": 25
        }
      }
    }
  ],
  "meshes": [
    {
      "name": "Object_0",
      "primitives": [
        {
          "attributes": {
            "NORMAL": 1,
            "POSITION": 0,
            "TANGENT": 2,
            "TEXCOORD_0": 3
          },
          "indices": 4,
          "material": 1,
          "mode": 4
        }
      ]
    },
    {
      "name": "Object_1",
      "primitives": [
        {
          "attributes": {
            "NORMAL": 6,
            "POSITION": 5,
            "TANGENT": 7,
            "TEXCOORD_0": 8
          },
          "indices": 9,
          "material": 2,
          "mode": 4
        }
      ]
    },
    {
      "name": "Object_2",
      "primitives": [
        {
          "attributes": {
            "NORMAL": 11,
            "POSITION": 10,
            "TANGENT": 12,
            "TEXCOORD_0": 13
          },
          "indices": 14,
          "material": 0,
          "mode": 4
        }
      ]
    },
    {
      "name": "Object_3",
      "primitives": [
        {
          "attributes": {
            "NORMAL": 16,
            "POSITION": 15,
            "TANGENT": 17,
            "TEXCOORD_0": 18
          },
          "indices": 19,
          "material": 3,
          "mode": 4
        }
      ]
    },
    {
      "name": "Object_4",
      "primitives": [
        {
          "attributes": {
            "NORMAL": 21,
            "POSITION": 20,
            "TANGENT": 22,
            "TEXCOORD_0": 23
          },
          "indices": 24,
          "material": 4,
          "mode": 4
        }
      ]
    },
    {
      "name": "Object_5",
      "primitives": [
        {
          "attributes": {
            "NORMAL": 26,
            "POSITION": 25,
            "TANGENT": 27,
            "TEXCOORD_0": 28
          },
          "indices": 29,
          "material": 5,
          "mode": 4
        }
      ]
    },
    {
      "name": "Object_6",
      "primitives": [
        {
          "attributes": {
            "NORMAL": 31,
            "POSITION": 30,
            "TANGENT": 32,
            "TEXCOORD_0": 33
          },
          "indices": 34,
          "material": 6,
          "mode": 4
        }
      ]
    }
  ],
  "nodes": [
    {
      "children": [
        1
      ],
      "matrix": [
        1.0,
        0.0,
        0.0,
        0.0,
        0.0,
        2.220446049250313e-16,
        -1.0,
        0.0,
        0.0,
        1.0,
        2.220446049250313e-16,
        0.0,
        0.0,
        0.0,
        0.0,
        1.0
      ],
      "name": "Sketchfab_model"
    },
    {
      "children": [
        2,
        3,
        4,
        5,
        6,
        7,
        8
      ],
      "name": "Equipo de sonido.obj.cleaner.materialmerger.gles"
    },
    {
      "mesh": 0,
      "name": "Object_2"
    },
    {
      "mesh": 1,
      "name": "Object_3"
    },
    {
      "mesh": 2,
      "name": "Object_4"
    },
    {
      "mesh": 3,
      "name": "Object_5"
    },
    {
      "mesh": 4,
      "name": "Object_6"
    },
    {
      "mesh": 5,
      "name": "Object_7"
    },
    {
      "mesh": 6,
      "name": "Object_8"
    }
  ],
  "samplers": [
    {
      "magFilter": 9729,
      "minFilter": 9987,
      "wrapS": 10497,
      "wrapT": 10497
    }
  ],
  "scene": 0,
  "scenes": [
    {
      "name": "Sketchfab_Scene",
      "nodes": [
        0
      ]
    }
  ],
  "textures": [
    {
      "sampler": 0,
      "source": 0
    },
    {
      "sampler": 0,
      "source": 1
    },
    {
      "sampler": 0,
      "source": 2
    },
    {
      "sampler": 0,
      "source": 3
    },
    {
      "sampler": 0,
      "source": 4
    },
    {
      "sampler": 0,
      "source": 5
    },
    {
      "sampler": 0,
      "source": 6
    },
    {
      "sampler": 0,
      "source": 7
    },
    {
      "sampler": 0,
      "source": 8
    },
    {
      "sampler": 0,
      "source": 9
    },
    {
      "sampler": 0,
      "source": 10
    },
    {
      "sampler": 0,
      "source": 11
    },
    {
      "sampler": 0,
      "source": 12
    },
    {
      "sampler": 0,
      "source": 13
    },
    {
      "sampler": 0,
      "source": 14
    },
    {
      "sampler": 0,
      "source": 15
    },
    {
      "sampler": 0,
      "source": 16
    },
    {
      "sampler": 0,
      "source": 17
    },
    {
      "sampler": 0,
      "source": 18
    },
    {
      "sampler": 0,
      "source": 19
    },
    {
      "sampler": 0,
      "source": 20
    },
    {
      "sampler": 0,
      "source": 21
    },
    {
      "sampler": 0,
      "source": 22
    },
    {
      "sampler": 0,
      "source": 23
    },
    {
      "sampler": 0,
      "source": 24
    },
    {
      "sampler": 0,
      "source": 25
    },
    {
      "sampler": 0,
      "source": 26
    },
    {
      "sampler": 0,
      "source": 27
    }
  ]
}
